<svg width="1133" height="705" viewBox="0 0 1133 705" fill="none" xmlns="http://www.w3.org/2000/svg"
    xmlns:xlink="http://www.w3.org/1999/xlink">
    <g filter="url(#filter0_b_708_50)">
        <path
            d="M79.5911 25.7575C86.1347 10.1535 101.403 0 118.323 0H1090.89C1114.09 0 1132.89 18.804 1132.89 42V663C1132.89 686.196 1114.09 705 1090.89 705H183.782C164.465 705 147.639 691.824 143.007 673.07L22.2251 183.994C20.0611 175.232 20.7774 166.005 24.2679 157.682L79.5911 25.7575Z"
            fill="#3D1076" fill-opacity="0.5" />
    </g>
    <g filter="url(#filter1_b_708_50)">
        <path fill-rule="evenodd" clip-rule="evenodd"
            d="M97.3232 0C80.4027 0 65.1346 10.1535 58.591 25.7575L3.26785 157.682C-0.22262 166.005 -0.938935 175.232 1.22503 183.994L122.007 673.07C126.638 691.824 143.465 705 162.782 705H183.782C164.465 705 147.638 691.824 143.007 673.07L22.225 183.994C20.0611 175.232 20.7774 166.005 24.2679 157.682L79.591 25.7575C86.1346 10.1535 101.403 0 118.323 0H97.3232Z"
            fill="#3D1076" fill-opacity="0.5" />
        <path fill-rule="evenodd" clip-rule="evenodd"
            d="M97.3232 0C80.4027 0 65.1346 10.1535 58.591 25.7575L3.26785 157.682C-0.22262 166.005 -0.938935 175.232 1.22503 183.994L122.007 673.07C126.638 691.824 143.465 705 162.782 705H183.782C164.465 705 147.638 691.824 143.007 673.07L22.225 183.994C20.0611 175.232 20.7774 166.005 24.2679 157.682L79.591 25.7575C86.1346 10.1535 101.403 0 118.323 0H97.3232Z"
            fill="url(#paint0_linear_708_50)" />
        <path fill-rule="evenodd" clip-rule="evenodd"
            d="M97.3232 0C80.4027 0 65.1346 10.1535 58.591 25.7575L3.26785 157.682C-0.22262 166.005 -0.938935 175.232 1.22503 183.994L122.007 673.07C126.638 691.824 143.465 705 162.782 705H183.782C164.465 705 147.638 691.824 143.007 673.07L22.225 183.994C20.0611 175.232 20.7774 166.005 24.2679 157.682L79.591 25.7575C86.1346 10.1535 101.403 0 118.323 0H97.3232Z"
            fill="url(#pattern0)" fill-opacity="0.25" style="mix-blend-mode:luminosity" />
    </g>
    <defs>
        <filter id="filter0_b_708_50" x="-79" y="-100" width="1311.89" height="905" filterUnits="userSpaceOnUse"
            color-interpolation-filters="sRGB">
            <feFlood flood-opacity="0" result="BackgroundImageFix" />
            <feGaussianBlur in="BackgroundImageFix" stdDeviation="50" />
            <feComposite in2="SourceAlpha" operator="in" result="effect1_backgroundBlur_708_50" />
            <feBlend mode="normal" in="SourceGraphic" in2="effect1_backgroundBlur_708_50" result="shape" />
        </filter>
        <filter id="filter1_b_708_50" x="-100" y="-100" width="383.782" height="905" filterUnits="userSpaceOnUse"
            color-interpolation-filters="sRGB">
            <feFlood flood-opacity="0" result="BackgroundImageFix" />
            <feGaussianBlur in="BackgroundImageFix" stdDeviation="50" />
            <feComposite in2="SourceAlpha" operator="in" result="effect1_backgroundBlur_708_50" />
            <feBlend mode="normal" in="SourceGraphic" in2="effect1_backgroundBlur_708_50" result="shape" />
        </filter>
        <pattern id="pattern0" patternContentUnits="objectBoundingBox" width="1" height="1">
            <use xlink:href="#image0_708_50"
                transform="translate(2.41803 1) scale(0.00416964 0.00108696) rotate(180)" />
        </pattern>
        <linearGradient id="paint0_linear_708_50" x1="6.68906" y1="-0.000132619" x2="183.782" y2="705"
            gradientUnits="userSpaceOnUse">
            <stop stop-color="#EB00FF" />
            <stop offset="0.5" stop-color="#FFB800" />
            <stop offset="1" stop-color="#EB00FF" />
        </linearGradient>
    </defs>
</svg>