<svg width="760" height="356" viewBox="0 0 760 356" fill="none" xmlns="http://www.w3.org/2000/svg">
<path fill-rule="evenodd" clip-rule="evenodd" d="M37 22C28.7157 22 22 28.7157 22 37V185.882C22 203.707 27.9528 221.021 38.9137 235.077L92.237 303.458C107.396 322.898 130.671 334.263 155.323 334.263H723.368C731.653 334.263 738.368 327.547 738.368 319.263V37C738.368 28.7157 731.653 22 723.368 22H37ZM679.609 49H701.808V306.251H642.475V170.096L506.408 306.251H424.045L483.189 246.856L679.609 49ZM59 49.0779H347.356L287.356 108.411H207.222V306.189H147.889V108.411H59V49.0779ZM555.546 49.0779H365.924L305.924 108.411H412.302L214.524 306.189H408.642L468.642 246.856H357.768L555.546 49.0779Z" fill="white"/>
<path fill-rule="evenodd" clip-rule="evenodd" d="M18 0C8.05888 0 0 8.05887 0 18V338C0 347.941 8.05887 356 18 356H742C751.941 356 760 347.941 760 338V21C760 9.40202 750.598 0 739 0H18ZM25 10C16.7157 10 10 16.7157 10 25V189.308C10 206.594 15.5985 223.414 25.9575 237.251L83.3702 313.943C98.4757 334.121 122.207 346 147.413 346H735C743.284 346 750 339.284 750 331V25C750 16.7157 743.284 10 735 10H25Z" fill="url(#paint0_linear_727_216)"/>
<path fill-rule="evenodd" clip-rule="evenodd" d="M18 0C8.05888 0 0 8.05887 0 18V338C0 347.941 8.05887 356 18 356H742C751.941 356 760 347.941 760 338V21C760 9.40202 750.598 0 739 0H18ZM25 10C16.7157 10 10 16.7157 10 25V189.308C10 206.594 15.5985 223.414 25.9575 237.251L83.3702 313.943C98.4757 334.121 122.207 346 147.413 346H735C743.284 346 750 339.284 750 331V25C750 16.7157 743.284 10 735 10H25Z" fill="url(#paint1_linear_727_216)"/>
<defs>
<linearGradient id="paint0_linear_727_216" x1="147.5" y1="164.5" x2="3.92895e-05" y2="356" gradientUnits="userSpaceOnUse">
<stop stop-color="white" stop-opacity="0"/>
<stop offset="0.577313" stop-color="white"/>
</linearGradient>
<linearGradient id="paint1_linear_727_216" x1="620" y1="140" x2="760" y2="-1.53856e-05" gradientUnits="userSpaceOnUse">
<stop stop-color="white" stop-opacity="0"/>
<stop offset="1" stop-color="white"/>
</linearGradient>
</defs>
</svg>
